<svg width="340" height="197" viewBox="0 0 340 197" fill="none" xmlns="http://www.w3.org/2000/svg">
<g style="mix-blend-mode:luminosity">
<g clip-path="url(#clip0_0_154)">
<rect x="-9.91534" y="0.000244141" width="349.333" height="196.5" rx="34.9333" fill="#F5F5F5"/>
<g clip-path="url(#clip1_0_154)">
<path d="M120.622 111.919C120.29 111.121 119.978 110.282 119.646 109.565L118.111 106.147L118.049 106.086C113.484 96.2606 108.607 86.2719 103.44 76.4469L103.233 76.0375C102.714 75.0755 102.195 74.0111 101.656 73.0286C100.992 71.8619 100.349 70.6133 99.2903 69.4261C98.2587 68.1839 96.9605 67.1831 95.4892 66.4959C94.018 65.8087 92.4104 65.4523 90.7826 65.4523C89.1547 65.4523 87.5472 65.8087 86.0759 66.4959C84.6047 67.1831 83.3064 68.1839 82.2749 69.4261C81.2996 70.6133 80.5734 71.8619 79.9093 73.0286C79.3906 74.093 78.8718 75.1369 78.3323 76.0989L78.1248 76.5083C73.0409 86.3333 68.0816 96.322 63.5165 106.147L63.392 106.27C62.9355 107.334 62.3959 108.44 61.8772 109.627C61.5452 110.343 61.2132 111.121 60.8812 111.981C59.9848 114.232 59.6986 116.674 60.0507 119.068C60.4028 121.461 61.381 123.723 62.8891 125.63C64.3971 127.537 66.3829 129.023 68.6506 129.943C70.9184 130.862 73.3898 131.183 75.8215 130.873C78.1527 130.571 80.3975 129.805 82.4201 128.622C85.1177 127.127 87.7115 124.958 90.6166 121.826C93.5216 124.958 96.1777 127.127 98.813 128.642C101.347 130.109 104.217 130.919 107.155 130.996C110.556 131.01 113.848 129.809 116.423 127.616C118.997 125.423 120.68 122.385 121.161 119.063C121.717 116.676 121.529 114.179 120.622 111.899V111.919ZM90.8241 115.317C87.255 110.814 84.9309 106.679 84.1424 103.138C83.8157 101.826 83.7453 100.464 83.9349 99.1263C84.0802 98.0823 84.4744 97.1613 85.0139 96.3834C86.259 94.6027 88.4378 93.4974 90.8241 93.4974C91.9573 93.4632 93.0815 93.7072 94.0955 94.2073C95.1096 94.7075 95.982 95.4482 96.6342 96.363C97.1737 97.1817 97.568 98.0823 97.6925 99.1263C97.9 100.313 97.817 101.685 97.485 103.138C96.6965 106.618 94.3724 110.793 90.8241 115.317ZM117.26 118.346C117.024 120.033 116.345 121.629 115.289 122.976C114.233 124.323 112.838 125.373 111.243 126.022C109.665 126.677 107.922 126.861 106.221 126.677C104.561 126.472 102.901 125.94 101.199 124.958C98.3741 123.235 95.8338 121.095 93.6669 118.612C98.0245 113.291 100.66 108.44 101.656 104.121C102.133 102.074 102.195 100.232 101.988 98.5327C101.729 96.9224 101.12 95.3863 100.203 94.0295C99.1566 92.5584 97.7596 91.3634 96.135 90.5496C94.5104 89.7359 92.708 89.3283 90.8863 89.3627C87.0475 89.3627 83.6237 91.123 81.5486 94.0091C80.6145 95.3624 80.0108 96.9107 79.7848 98.5327C79.5151 100.252 79.5773 102.156 80.1168 104.121C81.1129 108.44 83.8104 113.352 88.1058 118.653C85.9757 121.184 83.4294 123.343 80.5733 125.04C78.8511 126.022 77.2118 126.534 75.5517 126.739C72.9701 127.065 70.3624 126.373 68.2952 124.813C66.2281 123.253 64.8687 120.951 64.5125 118.408C64.305 116.77 64.4502 115.133 65.1143 113.291C65.3218 112.636 65.633 111.981 65.965 111.203C66.4215 110.138 66.9611 109.033 67.4798 107.928L67.5628 107.785C72.0449 98.0209 76.942 88.0527 82.0259 78.2891L82.2334 77.8797C82.7521 76.8972 83.2709 75.8533 83.8104 74.8708C84.3499 73.8269 84.9309 72.8239 85.678 72.0052C86.3246 71.2438 87.1325 70.6315 88.0449 70.2113C88.9573 69.7912 89.952 69.5735 90.959 69.5735C91.9659 69.5735 92.9606 69.7912 93.873 70.2113C94.7854 70.6315 95.5933 71.2438 96.2399 72.0052C96.9662 72.8239 97.568 73.8269 98.1075 74.8708C98.6263 75.8533 99.145 76.9177 99.6845 77.8797L99.892 78.2891C104.955 88.0527 109.852 98.0209 114.417 107.785L114.48 107.846C115.019 108.91 115.476 110.097 115.994 111.121C116.326 111.919 116.658 112.554 116.866 113.229C117.26 115.071 117.468 116.709 117.26 118.346ZM146.145 114.867C144.581 114.889 143.032 114.564 141.614 113.916C140.195 113.267 138.942 112.312 137.948 111.121C135.716 108.583 134.531 105.31 134.628 101.951C134.594 98.5188 135.817 95.1898 138.073 92.5763C139.116 91.3699 140.415 90.4038 141.878 89.746C143.34 89.0882 144.932 88.7547 146.539 88.7691C148.052 88.7282 149.55 89.0675 150.893 89.755C152.236 90.4425 153.38 91.4556 154.217 92.6991L154.424 89.4855H160.483V114.212H154.403L154.196 110.609C153.333 111.937 152.14 113.025 150.731 113.77C149.322 114.515 147.743 114.893 146.145 114.867ZM147.722 108.972C148.925 108.972 149.984 108.644 150.98 108.051C151.893 107.396 152.64 106.536 153.221 105.492C153.739 104.448 154.009 103.2 154.009 101.808C154.09 100.599 153.852 99.3899 153.317 98.2992C152.782 97.2085 151.97 96.2733 150.959 95.5852C149.988 94.9882 148.866 94.6718 147.722 94.6718C146.577 94.6718 145.456 94.9882 144.485 95.5852C143.572 96.2402 142.825 97.0998 142.244 98.1437C141.695 99.295 141.425 100.556 141.455 101.828C141.374 103.037 141.613 104.246 142.148 105.337C142.682 106.427 143.495 107.362 144.506 108.051C145.481 108.644 146.539 108.972 147.722 108.972ZM170.859 82.8127C170.859 83.5291 170.734 84.1841 170.402 84.7163C170.07 85.228 169.614 85.6988 169.012 86.0263C168.41 86.3538 167.767 86.4766 167.103 86.4766C166.439 86.4766 165.775 86.3538 165.173 86.0263C164.604 85.7137 164.125 85.2628 163.783 84.7163C163.461 84.1332 163.304 83.476 163.326 82.8127C163.326 82.0758 163.471 81.4208 163.783 80.9091C164.115 80.295 164.592 79.9266 165.173 79.5991C165.775 79.2716 166.418 79.1283 167.103 79.1283C167.763 79.1133 168.416 79.2676 168.998 79.5761C169.58 79.8847 170.071 80.3369 170.423 80.8886C170.725 81.4854 170.874 82.1459 170.859 82.8127ZM163.803 114.13V89.4445H170.402V114.171H163.783L163.803 114.13ZM188.04 95.9127V95.9945C187.729 95.8513 187.314 95.7898 187.002 95.7284C186.587 95.6466 186.255 95.6466 185.861 95.6466C184.014 95.6466 182.624 96.1788 181.711 97.2841C180.715 98.4098 180.259 99.9859 180.259 102.012V114.15H173.639V89.4241H179.719L179.927 93.1699C180.591 91.8599 181.379 90.8774 182.5 90.1405C183.614 89.4245 184.926 89.067 186.255 89.117C186.733 89.117 187.189 89.158 187.583 89.2399C187.791 89.3013 187.915 89.3013 188.04 89.3627V95.9127ZM190.696 114.13V79.2921H197.295V92.5967C198.228 91.4095 199.287 90.4884 200.615 89.772C202.717 88.7552 205.106 88.4668 207.395 88.9533C209.684 89.4398 211.74 90.6728 213.231 92.4534C215.469 94.9969 216.654 98.2778 216.551 101.644C216.585 105.076 215.362 108.405 213.107 111.019C212.063 112.225 210.764 113.191 209.302 113.849C207.839 114.507 206.248 114.84 204.64 114.826C203.128 114.867 201.63 114.527 200.286 113.84C198.943 113.152 197.8 112.139 196.963 110.896L196.755 114.109L190.696 114.171V114.13ZM203.458 108.972C204.64 108.972 205.699 108.644 206.695 108.051C207.608 107.396 208.355 106.536 208.936 105.492C209.475 104.448 209.724 103.2 209.724 101.808C209.724 100.436 209.475 99.1877 208.936 98.1437C208.391 97.1372 207.625 96.2631 206.695 95.5852C205.723 94.9882 204.602 94.6718 203.458 94.6718C202.313 94.6718 201.192 94.9882 200.22 95.5852C199.287 96.2402 198.56 97.0998 197.959 98.1437C197.41 99.295 197.14 100.556 197.17 101.828C197.089 103.037 197.328 104.246 197.863 105.337C198.397 106.427 199.21 107.362 200.22 108.051C201.196 108.644 202.254 108.972 203.458 108.972ZM219.041 114.15V89.4241H225.121L225.329 92.6377C226.093 91.4058 227.176 90.3977 228.468 89.7176C229.759 89.0374 231.211 88.71 232.674 88.7691C234.347 88.7406 235.991 89.1992 237.401 90.0875C238.811 90.9758 239.924 92.2544 240.601 93.7634C241.327 95.3191 241.721 97.2431 241.721 99.3923V114.212H235.102V100.252C235.102 98.5327 234.708 97.1817 233.919 96.1788C233.131 95.1963 232.052 94.6641 230.682 94.6641C229.686 94.6641 228.815 94.8688 228.047 95.3191C227.321 95.7898 226.719 96.3834 226.262 97.2227C225.801 98.071 225.572 99.0235 225.598 99.9859V114.15H219.041ZM245.021 114.15V79.2716H251.64V92.5763C252.537 91.3824 253.703 90.4112 255.047 89.7397C256.39 89.0682 257.874 88.7148 259.38 88.7077C260.944 88.6851 262.492 89.0101 263.911 89.6585C265.33 90.307 266.583 91.2622 267.576 92.4534C269.798 94.9967 270.975 98.2677 270.876 101.623C270.912 105.056 269.688 108.386 267.431 110.998C266.388 112.204 265.089 113.171 263.626 113.828C262.164 114.486 260.573 114.82 258.965 114.805C257.452 114.846 255.954 114.507 254.611 113.819C253.268 113.132 252.124 112.119 251.287 110.875L251.101 114.089L245.021 114.15ZM257.845 108.972C259.048 108.972 260.106 108.644 261.082 108.051C262.015 107.396 262.742 106.536 263.343 105.492C263.862 104.448 264.132 103.2 264.132 101.808C264.213 100.599 263.974 99.3899 263.44 98.2992C262.905 97.2085 262.092 96.2733 261.082 95.5852C260.11 94.9882 258.989 94.6718 257.845 94.6718C256.7 94.6718 255.579 94.9882 254.607 95.5852C253.694 96.2402 252.947 97.0998 252.366 98.1437C251.787 99.2847 251.516 100.554 251.578 101.828C251.497 103.037 251.736 104.246 252.27 105.337C252.805 106.427 253.617 107.362 254.628 108.051C255.603 108.644 256.6 108.972 257.845 108.972Z" fill="#FF385C"/>
</g>
</g>
</g>
<defs>
<clipPath id="clip0_0_154">
<rect x="-9.91577" y="0.000244141" width="349.333" height="196.5" fill="white"/>
</clipPath>
<clipPath id="clip1_0_154">
<rect width="211.655" height="65.4999" fill="white" transform="translate(59.9539 65.5002)"/>
</clipPath>
</defs>
</svg>
