<svg width="351" height="197" viewBox="0 0 351 197" fill="none" xmlns="http://www.w3.org/2000/svg">
<g style="mix-blend-mode:luminosity" opacity="0.5" clip-path="url(#clip0_0_158)">
<rect x="0.916626" y="0.000244141" width="349.333" height="196.5" rx="34.9333" fill="#F5F5F5"/>
<g clip-path="url(#clip1_0_158)">
<path fill-rule="evenodd" clip-rule="evenodd" d="M202.093 116.725C189.793 126.034 171.966 131.002 156.617 131.002C135.095 131.002 115.719 122.827 101.061 109.231C99.9096 108.162 100.941 106.705 102.323 107.538C118.142 116.989 137.702 122.676 157.907 122.676C171.533 122.676 186.523 119.781 200.306 113.773C202.388 112.864 204.129 115.173 202.093 116.725Z" fill="#FF9900"/>
<path fill-rule="evenodd" clip-rule="evenodd" d="M207.211 110.716C205.645 108.653 196.818 109.741 192.857 110.224C191.65 110.375 191.465 109.297 192.553 108.521C199.582 103.44 211.117 104.907 212.462 106.61C213.807 108.322 212.112 120.196 205.506 125.863C204.493 126.734 203.525 126.27 203.977 125.116C205.46 121.312 208.786 112.788 207.211 110.716Z" fill="#FF9900"/>
<path fill-rule="evenodd" clip-rule="evenodd" d="M193.124 72.6533V67.7146C193.124 66.9671 193.677 66.4657 194.34 66.4657H215.871C216.562 66.4657 217.115 66.9766 217.115 67.7146V71.9437C217.106 72.6533 216.525 73.5805 215.494 75.047L204.336 91.4054C208.482 91.3014 212.859 91.9352 216.618 94.1113C217.465 94.6033 217.696 95.3224 217.76 96.0319V101.302C217.76 102.021 216.986 102.863 216.175 102.428C209.551 98.8608 200.752 98.4729 193.428 102.466C192.682 102.882 191.899 102.049 191.899 101.33V96.3252C191.899 95.521 191.908 94.1492 192.691 92.9287L205.617 73.8927H194.368C193.677 73.8927 193.124 73.3913 193.124 72.6533Z" fill="black"/>
<path fill-rule="evenodd" clip-rule="evenodd" d="M114.582 103.468H108.031C107.405 103.42 106.907 102.938 106.861 102.323V67.799C106.861 67.1083 107.423 66.5596 108.124 66.5596H114.232C114.868 66.5879 115.374 67.0894 115.42 67.7138V72.2268H115.54C117.134 67.8652 120.128 65.8311 124.164 65.8311C128.264 65.8311 130.825 67.8652 132.667 72.2268C134.252 67.8652 137.855 65.8311 141.715 65.8311C144.46 65.8311 147.464 66.9948 149.297 69.6061C151.37 72.5107 150.946 76.7303 150.946 80.4297L150.937 102.219C150.937 102.909 150.375 103.468 149.675 103.468H143.134C142.48 103.42 141.954 102.881 141.954 102.219V83.9209C141.954 82.4638 142.083 78.8307 141.77 77.4494C141.282 75.1314 139.817 74.4786 137.919 74.4786C136.334 74.4786 134.676 75.5666 134.003 77.3075C133.331 79.0483 133.395 81.9624 133.395 83.9209V102.219C133.395 102.909 132.833 103.468 132.133 103.468H125.592C124.928 103.42 124.412 102.881 124.412 102.219L124.403 83.9209C124.403 80.0702 125.021 74.4029 120.368 74.4029C115.66 74.4029 115.844 79.9282 115.844 83.9209V102.219C115.844 102.909 115.282 103.468 114.582 103.468" fill="black"/>
<path fill-rule="evenodd" clip-rule="evenodd" d="M235.656 65.8311C245.376 65.8311 250.636 74.4029 250.636 85.3022C250.636 95.8325 244.823 104.187 235.656 104.187C226.111 104.187 220.915 95.6149 220.915 84.9332C220.915 74.1853 226.175 65.8311 235.656 65.8311ZM235.711 72.8797C230.883 72.8797 230.579 79.6349 230.579 83.8452C230.579 88.0649 230.515 97.0719 235.656 97.0719C240.732 97.0719 240.972 89.8057 240.972 85.3779C240.972 82.4638 240.852 78.9821 239.995 76.2194C239.258 73.8163 237.793 72.8797 235.711 72.8797Z" fill="black"/>
<path fill-rule="evenodd" clip-rule="evenodd" d="M263.235 103.468H256.712C256.058 103.42 255.533 102.881 255.533 102.219L255.524 67.6854C255.579 67.0515 256.122 66.5596 256.786 66.5596H262.857C263.429 66.5879 263.898 66.9853 264.027 67.5246V72.804H264.147C265.981 68.0828 268.551 65.8311 273.075 65.8311C276.014 65.8311 278.879 66.9191 280.722 69.8994C282.435 72.662 282.435 77.3075 282.435 80.6473V102.38C282.362 102.985 281.818 103.468 281.173 103.468H274.604C274.005 103.42 273.508 102.966 273.443 102.38V83.6276C273.443 79.8525 273.867 74.3272 269.343 74.3272C267.75 74.3272 266.285 75.4247 265.557 77.0899C264.635 79.1997 264.516 81.3001 264.516 83.6276V102.219C264.506 102.909 263.935 103.468 263.235 103.468" fill="black"/>
<path fill-rule="evenodd" clip-rule="evenodd" d="M175.96 86.9772C175.96 89.5979 176.024 91.7835 174.734 94.1109C173.693 96.0032 172.035 97.1669 170.201 97.1669C167.686 97.1669 166.212 95.1989 166.212 92.2944C166.212 86.5609 171.215 85.5201 175.96 85.5201V86.9772ZM182.565 103.373C182.132 103.771 181.506 103.799 181.018 103.534C178.843 101.68 178.447 100.819 177.259 99.0497C173.666 102.815 171.113 103.941 166.461 103.941C160.942 103.941 156.658 100.45 156.658 93.4581C156.658 87.999 159.532 84.2807 163.642 82.4642C167.198 80.8558 172.164 80.5719 175.96 80.1273V79.2568C175.96 77.6579 176.079 75.7656 175.158 74.3843C174.366 73.1449 172.836 72.634 171.482 72.634C168.985 72.634 166.765 73.9491 166.221 76.6739C166.111 77.2794 165.678 77.8755 165.079 77.9039L158.731 77.2037C158.197 77.0808 157.598 76.6361 157.754 75.794C159.21 67.8845 166.175 65.5002 172.403 65.5002C175.591 65.5002 179.755 66.3707 182.271 68.8495C185.458 71.9055 185.154 75.9833 185.154 80.4206V90.9036C185.154 94.0541 186.426 95.4355 187.624 97.1385C188.038 97.744 188.13 98.4725 187.596 98.9267C186.26 100.071 183.883 102.2 182.575 103.392L182.565 103.373" fill="black"/>
<path fill-rule="evenodd" clip-rule="evenodd" d="M90.0868 86.9772C90.0868 89.5979 90.1513 91.7834 88.8614 94.1109C87.8203 96.0031 86.1712 97.1669 84.3285 97.1669C81.8133 97.1669 80.3484 95.1989 80.3484 92.2944C80.3484 86.5609 85.3512 85.5201 90.0868 85.5201V86.9772ZM96.6926 103.373C96.2596 103.771 95.6331 103.799 95.1448 103.534C92.9705 101.68 92.5836 100.819 91.3858 99.0497C87.7927 102.815 85.2499 103.941 80.588 103.941C75.0785 103.941 70.7852 100.45 70.7852 93.4581C70.7852 87.999 73.6689 84.2807 77.7688 82.4642C81.325 80.8558 86.291 80.5719 90.0868 80.1273V79.2568C90.0868 77.6579 90.2066 75.7656 89.2945 74.3843C88.4929 73.1449 86.9635 72.634 85.6184 72.634C83.1216 72.634 80.892 73.9491 80.3484 76.6739C80.2379 77.2794 79.8049 77.8755 79.2152 77.9039L72.8581 77.2037C72.3238 77.0808 71.7341 76.6361 71.8815 75.794C73.3464 67.8845 80.3024 65.5002 86.5305 65.5002C89.7183 65.5002 93.8826 66.3707 96.3978 68.8495C99.5856 71.9055 99.2816 75.9832 99.2816 80.4206V90.9036C99.2816 94.0541 100.553 95.4355 101.751 97.1385C102.175 97.744 102.267 98.4725 101.732 98.9267C100.396 100.071 98.0193 102.2 96.7111 103.392L96.6927 103.373" fill="black"/>
</g>
</g>
<defs>
<clipPath id="clip0_0_158">
<rect width="349.333" height="196.5" fill="white" transform="translate(0.917084 0.000244141)"/>
</clipPath>
<clipPath id="clip1_0_158">
<rect width="211.655" height="65.4999" fill="white" transform="translate(70.7867 65.5002)"/>
</clipPath>
</defs>
</svg>
