<svg width="33" height="33" viewBox="0 0 33 33" fill="none" xmlns="http://www.w3.org/2000/svg">
<path opacity="0.1" fill-rule="evenodd" clip-rule="evenodd" d="M0.502197 16.1537C0.502197 7.28914 7.68831 0.103027 16.5528 0.103027C25.4174 0.103027 32.6035 7.28914 32.6035 16.1537C32.6035 25.0182 25.4174 32.2043 16.5528 32.2043C7.68831 32.2043 0.502197 25.0182 0.502197 16.1537Z" fill="#2F3337"/>
<path fill-rule="evenodd" clip-rule="evenodd" d="M25.1129 16.1422C25.1129 16.7211 25.0539 17.2993 24.9382 17.8628C24.8253 18.4129 24.6581 18.953 24.4391 19.4694C24.2251 19.9765 23.9596 20.4653 23.6495 20.9211C23.3439 21.374 22.9919 21.7989 22.6053 22.1863C22.2178 22.5719 21.7914 22.9229 21.3387 23.2298C20.8814 23.5378 20.392 23.8028 19.8845 24.0178C19.3674 24.2357 18.8261 24.4027 18.2764 24.5153C17.7121 24.6314 17.1319 24.6907 16.5521 24.6907C15.972 24.6907 15.3918 24.6314 14.8283 24.5153C14.2778 24.4027 13.7365 24.2357 13.2198 24.0178C12.7124 23.8028 12.2224 23.5378 11.7651 23.2298C11.3124 22.923 10.8861 22.5719 10.4994 22.1863C10.1123 21.7989 9.76037 21.374 9.45439 20.9211C9.1459 20.4653 8.88003 19.9765 8.66519 19.4694C8.44613 18.953 8.27853 18.4129 8.16525 17.8628C8.05072 17.2993 7.99219 16.7211 7.99219 16.1422C7.99219 15.5629 8.05069 14.9835 8.16528 14.4212C8.27856 13.8711 8.44616 13.3301 8.66522 12.8147C8.88006 12.3071 9.14593 11.8179 9.45442 11.3621C9.7604 10.9088 10.1124 10.4847 10.4994 10.0969C10.8861 9.71122 11.3125 9.36105 11.7652 9.05468C12.2225 8.74536 12.7124 8.48035 13.2198 8.26494C13.7365 8.0466 14.2778 7.87924 14.8283 7.7674C15.3918 7.6522 15.972 7.59375 16.5522 7.59375C17.1319 7.59375 17.7121 7.6522 18.2764 7.7674C18.8261 7.87928 19.3674 8.04663 19.8845 8.26494C20.392 8.48031 20.8815 8.74536 21.3388 9.05468C21.7915 9.36105 22.2179 9.71122 22.6053 10.0969C22.992 10.4847 23.344 10.9088 23.6495 11.3621C23.9596 11.8179 24.2251 12.3071 24.4391 12.8147C24.6581 13.3301 24.8253 13.8711 24.9382 14.4212C25.0539 14.9835 25.1129 15.5629 25.1129 16.1422ZM13.4329 9.53927C11.3943 10.5006 9.87275 12.3764 9.39831 14.637C9.59104 14.6387 12.6375 14.6771 16.1475 13.7459C14.8822 11.5011 13.5303 9.66912 13.4329 9.53927ZM16.7531 14.87C12.989 15.9953 9.377 15.9143 9.24743 15.9093C9.24532 15.9878 9.24156 16.0637 9.24156 16.1422C9.24156 18.0176 9.95008 19.7273 11.1147 21.02C11.1121 21.0162 13.1128 17.4721 17.0579 16.1982C17.1532 16.1664 17.2502 16.138 17.3463 16.1105C17.1628 15.6956 16.9626 15.2799 16.7531 14.87ZM21.3801 10.6634C20.093 9.53007 18.4031 8.84265 16.5521 8.84265C15.9581 8.84265 15.3817 8.91445 14.8295 9.04718C14.939 9.19413 16.3122 11.0132 17.5624 13.3055C20.3209 12.2729 21.3621 10.6901 21.3801 10.6634ZM17.8446 17.3201C17.8283 17.3255 17.8121 17.3302 17.7961 17.336C13.4828 18.8375 12.0742 21.8635 12.059 21.8966C13.3001 22.8603 14.8567 23.4418 16.5522 23.4418C17.5646 23.4418 18.5289 23.236 19.4063 22.8633C19.298 22.2255 18.8733 19.9899 17.8446 17.3201ZM20.6373 22.1963C22.2788 21.0901 23.4446 19.3337 23.7698 17.2992C23.6193 17.2508 21.574 16.6042 19.2144 16.982C20.1733 19.6134 20.5629 21.7563 20.6373 22.1963ZM18.1251 14.3933C18.2948 14.7414 18.4591 15.0957 18.6108 15.4518C18.6648 15.5796 18.7174 15.7048 18.7688 15.83C21.2802 15.5144 23.7544 16.0454 23.8602 16.067C23.8435 14.3365 23.2235 12.7483 22.1978 11.5048C22.184 11.5244 21.0115 13.2162 18.1251 14.3933Z" fill="#2F3337"/>
</svg>
