<svg width="351" height="197" viewBox="0 0 351 197" fill="none" xmlns="http://www.w3.org/2000/svg">
<g style="mix-blend-mode:luminosity" clip-path="url(#clip0_0_169)">
<rect x="0.748905" y="0.000244141" width="349.333" height="196.5" rx="34.9333" fill="#F5F5F5"/>
<g clip-path="url(#clip1_0_169)">
<path d="M225.484 127.118L242.621 108.212L225.484 89.3032H243.565L252.053 98.4878L260.226 89.3032H277.677L260.621 108.134L277.911 127.118H259.755L251.344 117.858L243.013 127.118H225.484Z" fill="#FF6600"/>
<path d="M225.484 80.8251H206.075V89.3017H225.484V102.077H206.075V113.803H225.484V127.117H191.81V67.5482H225.484V80.8251Z" fill="#FF6600"/>
<path d="M177.602 67.5482V91.9264H177.445C174.301 88.3771 170.371 87.1437 165.812 87.1437C156.473 87.1437 149.438 93.3773 146.969 101.619C144.153 92.5378 136.89 86.9736 126.12 86.9736C117.374 86.9736 110.468 90.8281 106.864 97.1091V89.3026H88.7864V80.8268H108.514V67.5482H72.6715V127.117H88.7864V102.077H104.849C104.37 103.916 104.114 105.886 104.114 107.964C104.114 120.39 113.782 129.109 126.12 129.109C136.496 129.109 143.333 124.326 146.95 115.606H133.14C131.272 118.226 129.855 119.004 126.12 119.004C121.79 119.004 118.056 115.294 118.056 110.897H146.176C147.396 120.766 155.226 129.278 165.971 129.278C170.606 129.278 174.85 127.039 177.445 123.259H177.602V127.116H191.807V67.5482H177.602ZM118.505 102.255C119.401 98.4714 122.389 95.9985 126.12 95.9985C130.227 95.9985 133.064 98.3951 133.81 102.255C134.125 102.255 118.505 102.255 118.505 102.255ZM168.981 118.047C163.745 118.047 160.491 113.256 160.491 108.254C160.491 102.908 163.321 97.7661 168.981 97.7661C174.85 97.7661 177.188 102.908 177.188 108.254C177.187 113.325 174.71 118.047 168.981 118.047Z" fill="#652C8F"/>
</g>
</g>
<defs>
<clipPath id="clip0_0_169">
<rect width="349.333" height="196.5" fill="white" transform="translate(0.749939 0.000244141)"/>
</clipPath>
<clipPath id="clip1_0_169">
<rect width="205.49" height="61.4062" fill="white" transform="translate(72.6664 67.5471)"/>
</clipPath>
</defs>
</svg>
