<svg width="340" height="197" viewBox="0 0 340 197" fill="none" xmlns="http://www.w3.org/2000/svg">
<g style="mix-blend-mode:luminosity" clip-path="url(#clip0_0_186)">
<rect x="-9.91534" y="0.5" width="349.333" height="196.5" rx="34.9333" fill="#F5F5F5"/>
<g clip-path="url(#clip1_0_186)">
<path d="M151.242 99.5904C151.242 108.682 144.072 115.382 135.273 115.382C126.474 115.382 119.305 108.682 119.305 99.5904C119.305 90.4347 126.474 83.7992 135.273 83.7992C144.072 83.7992 151.242 90.4347 151.242 99.5904ZM144.252 99.5904C144.252 93.909 140.096 90.0217 135.273 90.0217C130.45 90.0217 126.295 93.909 126.295 99.5904C126.295 105.215 130.45 109.159 135.273 109.159C140.096 109.159 144.252 105.208 144.252 99.5904Z" fill="#EA4335"/>
<path d="M185.699 99.5904C185.699 108.682 178.529 115.382 169.73 115.382C160.931 115.382 153.762 108.682 153.762 99.5904C153.762 90.4418 160.931 83.7992 169.73 83.7992C178.529 83.7992 185.699 90.4347 185.699 99.5904ZM178.709 99.5904C178.709 93.909 174.553 90.0217 169.73 90.0217C164.907 90.0217 160.752 93.909 160.752 99.5904C160.752 105.215 164.907 109.159 169.73 109.159C174.553 109.159 178.709 105.208 178.709 99.5904Z" fill="#FBBC05"/>
<path d="M218.711 84.7532V113.103C218.711 124.765 211.778 129.528 203.582 129.528C195.867 129.528 191.223 124.409 189.472 120.223L195.558 117.71C196.642 120.28 199.298 123.313 203.575 123.313C208.821 123.313 212.073 120.102 212.073 114.057V111.786H211.829C210.264 113.701 207.25 115.374 203.446 115.374C195.487 115.374 188.195 108.497 188.195 99.6474C188.195 90.7337 195.487 83.7992 203.446 83.7992C207.243 83.7992 210.257 85.4723 211.829 87.3305H212.073V84.7604H218.711V84.7532ZM212.568 99.6474C212.568 94.087 208.829 90.0217 204.07 90.0217C199.247 90.0217 195.207 94.087 195.207 99.6474C195.207 105.151 199.247 109.159 204.07 109.159C208.829 109.159 212.568 105.151 212.568 99.6474Z" fill="#4285F4"/>
<path d="M229.658 68.1368V114.414H222.84V68.1368H229.658Z" fill="#34A853"/>
<path d="M256.22 104.787L261.646 108.375C259.895 110.945 255.675 115.374 248.383 115.374C239.34 115.374 232.586 108.439 232.586 99.5824C232.586 90.1917 239.397 83.7912 247.601 83.7912C255.861 83.7912 259.902 90.3127 261.223 93.8369L261.947 95.6311L240.668 104.374C242.297 107.542 244.83 109.158 248.383 109.158C251.943 109.158 254.412 107.421 256.22 104.787ZM239.519 99.1054L253.744 93.246C252.962 91.2739 250.608 89.8998 247.837 89.8998C244.285 89.8998 239.34 93.0111 239.519 99.1054Z" fill="#EA4335"/>
<path d="M93.4937 95.4828V88.7833H116.252C116.475 89.9509 116.589 91.3321 116.589 92.8272C116.589 97.8536 115.204 104.069 110.74 108.497C106.398 112.983 100.85 115.375 93.5009 115.375C79.8789 115.375 68.4243 104.368 68.4243 90.855C68.4243 77.3421 79.8789 66.3353 93.5009 66.3353C101.037 66.3353 106.405 69.2686 110.439 73.0918L105.673 77.8191C102.781 75.1279 98.8621 73.0348 93.4937 73.0348C83.5463 73.0348 75.7664 80.9873 75.7664 90.855C75.7664 100.723 83.5463 108.675 93.4937 108.675C99.9459 108.675 103.621 106.105 105.975 103.77C107.884 101.876 109.14 99.1707 109.635 95.4756L93.4937 95.4828Z" fill="#4285F4"/>
</g>
</g>
<defs>
<clipPath id="clip0_0_186">
<rect width="349.333" height="196.5" fill="white" transform="translate(-9.91577 0.5)"/>
</clipPath>
<clipPath id="clip1_0_186">
<rect width="195.215" height="65.4999" fill="white" transform="translate(68.1733 66)"/>
</clipPath>
</defs>
</svg>
