<svg width="33" height="33" viewBox="0 0 33 33" fill="none" xmlns="http://www.w3.org/2000/svg">
<path opacity="0.1" fill-rule="evenodd" clip-rule="evenodd" d="M0 16.1537C0 7.28914 7.18612 0.103027 16.0506 0.103027C24.9152 0.103027 32.1013 7.28914 32.1013 16.1537C32.1013 25.0182 24.9152 32.2043 16.0506 32.2043C7.18612 32.2043 0 25.0182 0 16.1537Z" fill="#2F3337"/>
<path fill-rule="evenodd" clip-rule="evenodd" d="M16.051 7.59375C13.7261 7.59375 13.4343 7.60392 12.5212 7.64547C11.6099 7.6872 10.9878 7.83148 10.4435 8.04317C9.88049 8.26182 9.40289 8.5543 8.92707 9.0303C8.45089 9.50611 8.15841 9.98372 7.93905 10.5466C7.72682 11.091 7.58237 11.7133 7.54135 12.6243C7.50051 13.5374 7.48981 13.8293 7.48981 16.1542C7.48981 18.4791 7.50015 18.7699 7.54153 19.683C7.58344 20.5944 7.72772 21.2164 7.93923 21.7607C8.15806 22.3238 8.45054 22.8014 8.92653 23.2772C9.40217 23.7533 9.87977 24.0465 10.4424 24.2652C10.9871 24.4769 11.6093 24.6212 12.5205 24.6629C13.4336 24.7044 13.7252 24.7146 16.0499 24.7146C18.3749 24.7146 18.6658 24.7044 19.5789 24.6629C20.4903 24.6212 21.113 24.4769 21.6577 24.2652C22.2205 24.0465 22.6974 23.7533 23.1731 23.2772C23.6492 22.8014 23.9417 22.3238 24.1611 21.7609C24.3715 21.2164 24.516 20.5942 24.5588 19.6832C24.5998 18.7701 24.6105 18.4791 24.6105 16.1542C24.6105 13.8293 24.5998 13.5375 24.5588 12.6244C24.516 11.7131 24.3715 11.091 24.1611 10.5467C23.9417 9.98372 23.6492 9.50611 23.1731 9.0303C22.6969 8.55412 22.2207 8.26164 21.6571 8.04317C21.1114 7.83148 20.489 7.6872 19.5777 7.64547C18.6646 7.60392 18.3739 7.59375 16.0483 7.59375H16.051ZM15.283 9.13639C15.5109 9.13603 15.7652 9.13639 16.0509 9.13639C18.3366 9.13639 18.6075 9.14459 19.51 9.18561C20.3447 9.22377 20.7977 9.36324 21.0994 9.48041C21.4989 9.63557 21.7837 9.82104 22.0832 10.1207C22.3828 10.4203 22.5683 10.7056 22.7238 11.1051C22.8409 11.4065 22.9806 11.8595 23.0186 12.6941C23.0596 13.5966 23.0685 13.8676 23.0685 16.1522C23.0685 18.4368 23.0596 18.7078 23.0186 19.6103C22.9804 20.4449 22.8409 20.8979 22.7238 21.1993C22.5686 21.5988 22.3828 21.8832 22.0832 22.1827C21.7836 22.4823 21.4991 22.6678 21.0994 22.8229C20.798 22.9406 20.3447 23.0797 19.51 23.1179C18.6076 23.1589 18.3366 23.1678 16.0509 23.1678C13.7651 23.1678 13.4942 23.1589 12.5918 23.1179C11.7571 23.0794 11.3042 22.9399 11.0022 22.8227C10.6027 22.6676 10.3174 22.4821 10.0178 22.1825C9.71816 21.8829 9.53268 21.5982 9.37717 21.1986C9.26 20.8972 9.12035 20.4442 9.08237 19.6095C9.04135 18.7071 9.03315 18.436 9.03315 16.1501C9.03315 13.8641 9.04135 13.5944 9.08237 12.692C9.12053 11.8574 9.26 11.4044 9.37717 11.1026C9.53233 10.7031 9.71816 10.4178 10.0178 10.1182C10.3174 9.81855 10.6027 9.63307 11.0022 9.47756C11.304 9.35985 11.7571 9.22074 12.5918 9.1824C13.3815 9.14673 13.6875 9.13603 15.283 9.13425V9.13639ZM20.6204 10.5578C20.0533 10.5578 19.5932 11.0174 19.5932 11.5847C19.5932 12.1518 20.0533 12.6119 20.6204 12.6119C21.1875 12.6119 21.6477 12.1518 21.6477 11.5847C21.6477 11.0175 21.1875 10.5578 20.6204 10.5578ZM16.051 11.758C13.6232 11.758 11.6548 13.7264 11.6548 16.1542C11.6548 18.5819 13.6232 20.5494 16.051 20.5494C18.4787 20.5494 20.4464 18.5819 20.4464 16.1542C20.4464 13.7264 18.4787 11.758 16.051 11.758ZM16.0509 13.3007C17.6268 13.3007 18.9044 14.5781 18.9044 16.1542C18.9044 17.73 17.6268 19.0076 16.0509 19.0076C14.4749 19.0076 13.1975 17.73 13.1975 16.1542C13.1975 14.5781 14.4749 13.3007 16.0509 13.3007Z" fill="#2F3337"/>
</svg>
