<svg width="24" height="28" viewBox="0 0 24 28" fill="none" xmlns="http://www.w3.org/2000/svg">
<path fill-rule="evenodd" clip-rule="evenodd" d="M12.0907 0.979031C15.1135 0.992406 18.0027 2.1962 20.116 4.30954C22.2427 6.43625 23.4331 9.31199 23.4197 12.2947V12.3616C23.3395 16.4144 21.0657 20.1462 18.23 23.062C16.625 24.7072 14.846 26.1652 12.9066 27.3957C12.3849 27.8371 11.6225 27.8371 11.1009 27.3957C8.22514 25.5231 5.68379 23.169 3.62395 20.4271C1.81826 18.0462 0.78834 15.1838 0.681335 12.2011C0.708087 5.98148 5.81754 0.965655 12.0907 0.979031ZM12.0901 16.0396C13.0398 16.0396 13.9493 15.6785 14.6181 15.0231C15.3136 14.3409 15.7029 13.4327 15.7029 12.4817C15.7029 10.5022 14.0831 8.91047 12.0901 8.91047C10.0972 8.91047 8.49212 10.5022 8.49212 12.4817C8.49212 14.4359 10.0704 16.0129 12.05 16.0396H12.0901Z" fill="#505050"/>
</svg>
