<svg width="149" height="40" viewBox="0 0 149 40" fill="none" xmlns="http://www.w3.org/2000/svg">
<path d="M77.9484 12.2L72.2844 29H70.4124L65.4924 14.672L60.5484 29H58.7004L53.0364 12.2H54.8604L59.7084 26.648L64.7244 12.2H66.3804L71.3244 26.72L76.2444 12.2H77.9484ZM88.3847 29.144C86.7207 29.144 85.2087 28.776 83.8487 28.04C82.5047 27.288 81.4487 26.264 80.6807 24.968C79.9287 23.672 79.5527 22.216 79.5527 20.6C79.5527 18.984 79.9287 17.528 80.6807 16.232C81.4487 14.936 82.5047 13.92 83.8487 13.184C85.2087 12.432 86.7207 12.056 88.3847 12.056C90.0487 12.056 91.5447 12.424 92.8727 13.16C94.2167 13.896 95.2727 14.92 96.0407 16.232C96.8087 17.528 97.1927 18.984 97.1927 20.6C97.1927 22.216 96.8087 23.68 96.0407 24.992C95.2727 26.288 94.2167 27.304 92.8727 28.04C91.5447 28.776 90.0487 29.144 88.3847 29.144ZM88.3847 27.56C89.7127 27.56 90.9127 27.264 91.9847 26.672C93.0567 26.064 93.8967 25.232 94.5047 24.176C95.1127 23.104 95.4167 21.912 95.4167 20.6C95.4167 19.288 95.1127 18.104 94.5047 17.048C93.8967 15.976 93.0567 15.144 91.9847 14.552C90.9127 13.944 89.7127 13.64 88.3847 13.64C87.0567 13.64 85.8487 13.944 84.7607 14.552C83.6887 15.144 82.8407 15.976 82.2167 17.048C81.6087 18.104 81.3047 19.288 81.3047 20.6C81.3047 21.912 81.6087 23.104 82.2167 24.176C82.8407 25.232 83.6887 26.064 84.7607 26.672C85.8487 27.264 87.0567 27.56 88.3847 27.56ZM112.646 29L108.806 23.6C108.374 23.648 107.926 23.672 107.462 23.672H102.95V29H101.174V12.2H107.462C109.606 12.2 111.286 12.712 112.502 13.736C113.718 14.76 114.326 16.168 114.326 17.96C114.326 19.272 113.99 20.384 113.318 21.296C112.662 22.192 111.718 22.84 110.486 23.24L114.59 29H112.646ZM107.414 22.16C109.078 22.16 110.35 21.792 111.23 21.056C112.11 20.32 112.549 19.288 112.549 17.96C112.549 16.6 112.11 15.56 111.23 14.84C110.35 14.104 109.078 13.736 107.414 13.736H102.95V22.16H107.414ZM121.547 13.736H115.643V12.2H129.227V13.736H123.323V29H121.547V13.736ZM146.104 12.2V29H144.352V21.248H133.84V29H132.064V12.2H133.84V19.688H144.352V12.2H146.104Z" fill="#0E0807"/>
<path d="M38.9004 1H1V38.9004H38.9004V1Z" stroke="black" stroke-miterlimit="10" stroke-linejoin="round"/>
<path d="M38.9004 38.9004L7.31673 32.5837L1 1L32.5837 7.31673L38.9004 38.9004Z" stroke="black" stroke-miterlimit="10" stroke-linejoin="round"/>
<path d="M38.9004 38.9004L13.6335 26.2669L1 1L26.2669 13.6335L38.9004 38.9004Z" stroke="black" stroke-miterlimit="10" stroke-linejoin="round"/>
<path d="M1 1L38.9004 38.9004" stroke="black" stroke-miterlimit="10" stroke-linejoin="round"/>
</svg>
