<svg width="28" height="25" viewBox="0 0 28 25" fill="none" xmlns="http://www.w3.org/2000/svg">
<path fill-rule="evenodd" clip-rule="evenodd" d="M20.6567 0.562988C22.4504 0.562988 24.1758 1.27189 25.4451 2.5439C26.7158 3.81324 27.4261 5.52531 27.4261 7.31763V17.8843C27.4261 21.6161 24.3898 24.639 20.6567 24.639H7.44301C3.7099 24.639 0.674988 21.6161 0.674988 17.8843V7.31763C0.674988 3.58586 3.69652 0.562988 7.44301 0.562988H20.6567ZM22.7848 9.31064L22.8918 9.20363C23.2115 8.81574 23.2115 8.25397 22.8771 7.86608C22.6912 7.66678 22.4357 7.54507 22.1696 7.51831C21.8887 7.5036 21.6212 7.59857 21.4192 7.78582L15.3882 12.601C14.6124 13.2444 13.5009 13.2444 12.7131 12.601L6.69407 7.78582C6.27809 7.47819 5.70294 7.51831 5.35652 7.87945C4.99538 8.24059 4.95525 8.81574 5.26155 9.21701L5.43677 9.39089L11.5226 14.1392C12.2717 14.7277 13.1799 15.0487 14.1309 15.0487C15.0792 15.0487 16.0034 14.7277 16.7511 14.1392L22.7848 9.31064Z" fill="#505050"/>
</svg>
