<svg width="340" height="197" viewBox="0 0 340 197" fill="none" xmlns="http://www.w3.org/2000/svg">
<g style="mix-blend-mode:luminosity" clip-path="url(#clip0_0_177)">
<rect x="0.582794" y="0.000244141" width="349.333" height="196.5" rx="34.9333" fill="#F5F5F5"/>
<g clip-path="url(#clip1_0_177)">
<path d="M138.397 102.293L136.903 106.501H136.778C136.529 105.553 136.073 104.109 135.325 102.376L127.315 82.3673H119.47V114.257H124.658V94.5787C124.658 93.3411 124.658 91.9384 124.617 90.2057C124.575 89.3394 124.492 88.6793 124.451 88.1842H124.575C124.824 89.4219 125.115 90.3295 125.322 90.9071L134.952 114.175H138.604L148.151 90.7008C148.358 90.1645 148.566 89.0919 148.774 88.1842H148.898C148.774 90.5358 148.69 92.6398 148.649 93.9187V114.134H154.169V82.2848H146.615L138.397 102.293ZM159.399 91.2784H164.795V114.134H159.399V91.2784ZM162.139 81.6247C161.225 81.6247 160.478 81.9548 159.856 82.5323C159.233 83.1099 158.901 83.8525 158.901 84.7601C158.901 85.6265 159.233 86.369 159.856 86.9466C160.478 87.5242 161.225 87.813 162.139 87.813C163.052 87.813 163.84 87.4829 164.421 86.9466C165.044 86.369 165.376 85.6265 165.376 84.7601C165.376 83.8937 165.044 83.1512 164.421 82.5323C163.882 81.9548 163.093 81.6247 162.139 81.6247ZM183.929 91.0721C182.933 90.8658 181.895 90.742 180.899 90.742C178.45 90.742 176.209 91.2784 174.341 92.351C172.474 93.4236 170.979 94.9088 170.025 96.7652C169.029 98.663 168.53 100.849 168.53 103.366C168.53 105.553 169.029 107.491 169.983 109.265C170.938 110.998 172.266 112.401 174.051 113.35C175.753 114.299 177.745 114.794 179.986 114.794C182.56 114.794 184.759 114.257 186.503 113.267L186.544 113.226V108.275L186.337 108.44C185.548 109.018 184.635 109.513 183.722 109.802C182.767 110.132 181.895 110.297 181.148 110.297C178.99 110.297 177.288 109.678 176.085 108.317C174.839 106.996 174.217 105.181 174.217 102.912C174.217 100.561 174.839 98.7042 176.126 97.3428C177.413 95.9814 179.115 95.2801 181.19 95.2801C182.933 95.2801 184.718 95.8576 186.337 97.0128L186.544 97.1778V91.9384L186.503 91.8972C185.797 91.6084 185.008 91.2784 183.929 91.0721ZM201.735 90.9071C200.407 90.9071 199.162 91.3196 198.083 92.186C197.17 92.9286 196.547 94.0012 196.008 95.2801H195.966V91.2784H190.57V114.134H195.966V102.458C195.966 100.478 196.381 98.828 197.294 97.6316C198.207 96.394 199.37 95.7751 200.781 95.7751C201.279 95.7751 201.777 95.8989 202.4 95.9814C202.981 96.1464 203.396 96.3114 203.686 96.5177L203.894 96.6827V91.3196L203.769 91.2784C203.396 91.0308 202.649 90.9071 201.735 90.9071ZM216.429 90.7833C212.652 90.7833 209.622 91.8972 207.505 94.0837C205.347 96.2702 204.309 99.2818 204.309 103.077C204.309 106.625 205.388 109.513 207.463 111.617C209.539 113.68 212.361 114.752 215.889 114.752C219.583 114.752 222.53 113.638 224.647 111.411C226.805 109.183 227.843 106.213 227.843 102.541C227.843 98.9105 226.847 96.0227 224.813 93.9187C222.862 91.8147 219.998 90.7833 216.429 90.7833ZM220.745 108.358C219.749 109.637 218.172 110.256 216.221 110.256C214.27 110.256 212.693 109.637 211.572 108.275C210.452 106.996 209.912 105.14 209.912 102.788C209.912 100.354 210.493 98.4979 211.572 97.1778C212.693 95.8576 214.229 95.1976 216.18 95.1976C218.089 95.1976 219.583 95.8164 220.662 97.0953C221.741 98.3742 222.323 100.231 222.323 102.665C222.24 105.14 221.783 107.079 220.745 108.358ZM239.88 100.767C238.178 100.066 237.099 99.5293 236.601 99.0755C236.186 98.663 235.978 98.0854 235.978 97.3428C235.978 96.724 236.227 96.1052 236.85 95.6926C237.472 95.2801 238.178 95.0738 239.216 95.0738C240.129 95.0738 241.083 95.2388 241.997 95.4863C242.91 95.7339 243.74 96.1052 244.404 96.6002L244.611 96.7652V91.7322L244.487 91.6909C243.864 91.4434 243.034 91.1958 242.038 90.9896C241.042 90.8246 240.129 90.742 239.382 90.742C236.808 90.742 234.691 91.3609 233.031 92.7223C231.371 94.0012 230.582 95.7339 230.582 97.7554C230.582 98.828 230.748 99.7768 231.122 100.561C231.495 101.345 232.035 102.087 232.782 102.706C233.529 103.284 234.608 103.944 236.103 104.562C237.348 105.099 238.302 105.511 238.884 105.841C239.465 106.171 239.838 106.543 240.129 106.831C240.336 107.161 240.461 107.574 240.461 108.11C240.461 109.637 239.299 110.379 236.933 110.379C236.02 110.379 235.065 110.214 233.944 109.843C232.824 109.472 231.786 108.935 230.914 108.317L230.707 108.152V113.391L230.831 113.432C231.62 113.803 232.575 114.051 233.737 114.34C234.899 114.546 235.937 114.711 236.85 114.711C239.631 114.711 241.914 114.092 243.532 112.731C245.193 111.411 246.064 109.719 246.064 107.533C246.064 106.006 245.649 104.645 244.736 103.614C243.532 102.623 242.038 101.592 239.88 100.767ZM260.301 90.7833C256.524 90.7833 253.494 91.8972 251.377 94.0837C249.26 96.2702 248.181 99.2818 248.181 103.077C248.181 106.625 249.26 109.513 251.335 111.617C253.411 113.68 256.233 114.752 259.761 114.752C263.455 114.752 266.402 113.638 268.519 111.411C270.677 109.183 271.715 106.213 271.715 102.541C271.715 98.9105 270.719 96.0227 268.685 93.9187C266.734 91.8147 263.87 90.7833 260.301 90.7833ZM264.576 108.358C263.58 109.637 262.003 110.256 260.052 110.256C258.059 110.256 256.524 109.637 255.403 108.275C254.282 106.996 253.743 105.14 253.743 102.788C253.743 100.354 254.324 98.4979 255.403 97.1778C256.524 95.8576 258.059 95.1976 260.01 95.1976C261.878 95.1976 263.414 95.8164 264.493 97.0953C265.572 98.3742 266.153 100.231 266.153 102.665C266.153 105.14 265.614 107.079 264.576 108.358ZM300.562 95.6926V91.2784H295.125V84.5126L294.959 84.5538L289.812 86.0803L289.687 86.1215V91.2784H281.552V88.3905C281.552 87.0704 281.884 86.039 282.465 85.3789C283.046 84.7188 283.918 84.3888 284.997 84.3888C285.744 84.3888 286.533 84.5538 287.404 84.9251L287.612 85.0489V80.3871L287.487 80.3458C286.74 80.0983 285.744 79.9333 284.457 79.9333C282.839 79.9333 281.427 80.3046 280.141 80.9234C278.854 81.6247 277.899 82.5736 277.194 83.8525C276.488 85.0901 276.115 86.4928 276.115 88.1017V91.2784H272.338V95.6514H276.115V114.134H281.552V95.6926H289.687V107.45C289.687 112.277 291.97 114.711 296.536 114.711C297.283 114.711 298.071 114.587 298.819 114.464C299.607 114.299 300.188 114.092 300.52 113.927L300.562 113.886V109.472L300.354 109.637C300.022 109.843 299.732 110.008 299.234 110.132C298.819 110.256 298.445 110.297 298.154 110.297C297.075 110.297 296.328 110.049 295.789 109.43C295.291 108.853 295.042 107.904 295.042 106.501V95.6926H300.562Z" fill="#737373"/>
<path d="M49.9044 71.6406H75.3477V96.9298H49.9044V71.6406Z" fill="#F25022"/>
<path d="M78.0049 71.6409H103.448V96.9301H78.0049V71.6409Z" fill="#7FBA00"/>
<path d="M49.9043 99.5705H75.3476V124.86H49.9043V99.5705Z" fill="#00A4EF"/>
<path d="M78.0049 99.5705H103.448V124.86H78.0049V99.5705Z" fill="#FFB900"/>
</g>
</g>
<defs>
<clipPath id="clip0_0_177">
<rect width="349.333" height="196.5" fill="white" transform="translate(0.582764 0.000244141)"/>
</clipPath>
<clipPath id="clip1_0_177">
<rect width="250.698" height="53.2187" fill="white" transform="translate(49.9037 71.6409)"/>
</clipPath>
</defs>
</svg>
