<svg width="20" height="28" viewBox="0 0 20 28" fill="none" xmlns="http://www.w3.org/2000/svg">
<path fill-rule="evenodd" clip-rule="evenodd" d="M0.69912 12.5066C0.69912 11.6791 0.709084 10.8517 0.719095 10.0204L0.719095 10.0203C0.72417 9.5989 0.729257 9.17646 0.733064 8.75254C0.733064 4.19777 3.58436 0.87686 7.52185 0.87686H12.5795C16.517 0.87686 19.3683 4.19777 19.3683 8.75254C19.4022 10.5771 19.4136 12.4016 19.4136 14.2393C19.4136 16.0769 19.4022 17.9277 19.3683 19.7522C19.3683 24.307 16.517 27.6279 12.5795 27.6279H7.52185C3.58436 27.6279 0.733064 24.307 0.733064 19.7391C0.710434 18.0196 0.687805 16.2607 0.687805 14.4755L0.69912 12.5066ZM11.7624 24.4716V24.6856C11.7624 25.5866 11.0091 26.2907 10.0503 26.2907C9.11438 26.2907 8.33825 25.5866 8.33825 24.6856V24.4716C8.33825 23.5942 9.11438 22.8666 10.0503 22.8666C11.0091 22.8666 11.7624 23.5942 11.7624 24.4716ZM3.38526 9.49559C3.37811 10.0359 3.37099 10.5738 3.37099 11.1116L3.36291 12.3914C3.36291 13.5518 3.37908 14.6951 3.39524 15.8128C3.39524 18.7819 5.43188 20.9405 8.24438 20.9405H11.857C14.6695 20.9405 16.7061 18.7819 16.7061 15.8213C16.7304 14.6353 16.7384 13.4323 16.7384 12.2379C16.7384 11.0434 16.7304 9.85743 16.7061 8.67149C16.7061 5.71089 14.6695 3.55229 11.857 3.55229H8.24438C5.43188 3.55229 3.39524 5.71089 3.39524 8.67149C3.39252 8.94705 3.38889 9.22164 3.38526 9.49559Z" fill="#505050"/>
</svg>
