<svg width="351" height="197" viewBox="0 0 351 197" fill="none" xmlns="http://www.w3.org/2000/svg">
<g style="mix-blend-mode:luminosity" clip-path="url(#clip0_0_195)">
<rect x="0.916626" y="0.5" width="349.333" height="196.5" rx="34.9333" fill="#F5F5F5"/>
<g opacity="0.5" clip-path="url(#clip1_0_195)">
<path fill-rule="evenodd" clip-rule="evenodd" d="M252.387 96.3762L239.57 118.553L228.635 118.596L252.387 76.8552L276.05 118.596H264.942L252.387 96.374V96.3762ZM217.875 108.942H230.123L224.437 118.596H208.473L208.517 106.841V77.1118H217.921L217.878 108.942H217.875ZM184.286 77.114C195.964 77.1575 205.412 86.4221 205.368 97.8746C205.325 109.286 195.877 118.553 184.197 118.553C172.563 118.509 163.115 109.245 163.115 97.7898C163.158 86.3786 172.606 77.114 184.286 77.114ZM184.243 108.901C190.496 108.901 195.524 103.966 195.524 97.8746C195.57 91.7852 190.496 86.8071 184.286 86.8071C178.074 86.7636 173 91.7417 173 97.8333C172.957 103.923 178.03 108.901 184.241 108.901H184.243ZM145.708 94.5798C145.578 92.8617 145.138 90.5891 144.482 88.4034C143.132 83.8888 140.785 79.7383 137.616 76.2615C135.953 74.4607 134.073 72.7861 131.271 70.8136C129.135 69.7549 127.035 68.6248 124.974 67.4252C123.619 66.6532 121.999 65.7071 119.857 65.0221C117.318 64.4201 114.723 64.0899 112.114 64.0369C109.581 63.9499 107.041 64.1674 104.592 64.6371C102.01 65.0656 99.8667 65.7506 97.0235 66.4379C90.5924 69.226 85.6077 73.4299 81.3202 79.0082C66.3618 99.9842 79.8781 129.37 104.854 132.843C108.966 133.402 113.078 133.187 116.969 132.287L119.725 131.558C119.812 131.514 119.944 131.471 120.031 131.471L123.181 130.271C123.355 130.184 123.487 130.14 123.662 130.055L124.974 129.455C127.492 128.207 129.855 126.667 132.016 124.866C130.049 126.661 127.91 128.256 125.63 129.627L125.76 129.714C126.2 129.583 126.592 129.455 127.029 129.37C127.029 129.37 127.029 130.055 126.943 129.927C126.243 130.442 127.337 129.97 128.735 129.24C130.136 128.511 131.492 127.609 132.715 126.58C134.511 125.079 136.085 123.448 138.315 120.791C140.589 116.8 143.434 113.324 144.746 108.649C145.184 107.405 145.576 105.948 145.84 104.445C146.1 102.944 146.277 101.4 146.277 99.8124C146.234 98.2248 146.059 96.5937 145.708 94.5798ZM113.34 129.842C120.994 128.639 127.423 124.394 132.672 118.603C134.116 116.5 135.253 114.568 136.652 112.468C138.402 108.177 138.272 104.36 138.839 101.659C139.541 96.7655 137.878 92.8204 136.479 88.6165C134.335 83.7254 131.492 80.0804 126.505 77.2488C113.907 69.4413 96.7615 71.627 88.5829 83.2969C88.5396 83.2969 88.3187 83.5971 87.8813 84.1973C88.4508 81.7963 89.8951 80.3805 91.3372 79.0061C95.6247 75.4894 100.612 72.6991 106.298 71.329C112.729 70.6418 119.113 71.329 124.842 74.1171C133.417 79.0061 139.103 86.6875 140.545 95.7781V104.188C138.753 117.959 126.943 128.426 113.34 129.842ZM144.79 98.5249C144.482 78.3645 124.494 64.7655 105.029 67.5122C99.3426 68.9258 93.1302 71.7574 88.7128 75.7047C86.5691 77.1183 85.5643 79.7368 83.4206 81.8377C74.8457 94.408 76.3355 110.495 87.0065 120.277C88.3753 121.636 89.8369 122.898 91.3805 124.053C82.4592 118.688 78.4338 110.578 77.0349 100.715C77.0349 97.1961 77.7343 93.7208 78.4771 90.2041C83.4661 74.8022 99.1672 63.6063 116.272 66.4379C119.115 67.1251 121.958 67.8537 124.846 68.5409C128.432 69.9545 131.975 72.0576 134.818 74.8478C137.661 77.6338 139.805 81.1526 141.949 84.6257C143.391 87.416 144.092 90.9327 144.792 93.7208C144.922 95.3084 144.922 96.9395 144.792 98.5271L144.79 98.5249Z" fill="black"/>
<path fill-rule="evenodd" clip-rule="evenodd" d="M127.034 98.826C127.034 107.493 119.774 114.528 110.807 114.528C101.842 114.528 94.5794 107.493 94.5794 98.826C94.5794 90.1616 101.84 83.1261 110.807 83.1261C119.774 83.1261 127.034 90.1616 127.034 98.8282V98.826Z" fill="#F5F5F5"/>
<path fill-rule="evenodd" clip-rule="evenodd" d="M127.125 96.1666C126.907 94.9662 126.556 94.0223 126.207 92.6935C124.806 89.7749 122.751 87.5022 120.038 85.571C109.891 78.8378 95.9375 85.3144 94.4521 96.8126C93.8848 101.36 95.5023 105.736 98.3887 109.083C97.5139 108.18 96.5525 107.239 95.8964 106.164L95.8098 106.251C95.8964 106.508 96.2472 106.68 96.3338 106.936C96.3338 106.936 95.983 106.936 96.0718 106.893C95.8098 106.595 96.0285 107.067 96.4204 107.708C96.7712 108.352 97.2086 108.954 97.7326 109.511C98.4775 110.327 99.2636 111.055 100.576 112.043C102.503 113.028 104.207 114.315 106.437 114.916C107.05 115.09 107.75 115.259 108.451 115.388C109.194 115.518 109.893 115.562 110.682 115.562C111.424 115.562 112.213 115.475 113.174 115.301C114.165 115.183 115.145 114.983 116.104 114.702C118.244 114.055 120.216 112.941 121.879 111.44C122.71 110.67 123.893 109.683 124.809 108.396C125.553 106.938 125.64 106.208 125.991 105.564C126.339 104.92 126.777 104.192 127.084 103.204C127.335 102.033 127.481 100.842 127.522 99.6442C127.478 98.4437 127.392 97.2845 127.128 96.1688L127.125 96.1666ZM116.714 88.1895C118.202 89.0463 118.421 89.1747 117.632 88.6179C118.771 88.8745 119.471 89.5183 120.17 90.162C121.877 92.0932 123.275 94.3659 123.975 96.9822C124.369 99.9421 124.061 102.902 122.795 105.52C120.521 109.509 116.89 112.169 112.559 112.897C112.078 112.897 111.554 112.897 111.071 112.941C112.297 112.726 113.085 111.954 115.316 111.138C117.719 110.281 120.432 106.293 121.747 103.974C125.595 97.6673 121.045 91.8344 116.714 88.1895ZM108.492 112.982C101.845 112.297 96.7257 106.849 96.0263 100.542C96.637 104.061 98.7374 106.762 101.581 109.165C102.587 109.809 104.073 110.71 105.08 111.353C106.786 111.997 107.791 112.684 109.454 112.984H108.492V112.982ZM126.381 101.53C126.077 102.861 125.77 104.146 125.462 105.477C124.806 107.108 123.845 108.781 122.533 110.109C121.22 111.44 119.557 112.469 117.897 113.456C116.584 114.141 114.921 114.485 113.566 114.826C112.778 114.913 111.86 114.57 111.071 114.529C120.783 114.27 127.431 105.22 125.989 96.2536C125.287 93.6374 123.888 91.3625 122.182 89.0898C121.483 88.1025 120.125 87.5022 119.12 86.5149C113.04 82.6981 104.993 83.4702 100.4 88.4896C99.7564 89.1492 99.1567 89.851 98.6053 90.5905C101.056 86.9868 104.993 84.4575 109.716 83.7268C111.379 83.6833 113.085 83.9856 114.746 84.2857C122.095 86.5149 127.563 93.6374 126.381 101.532V101.53Z" fill="#D7DF23"/>
</g>
</g>
<defs>
<clipPath id="clip0_0_195">
<rect width="349.333" height="196.5" fill="white" transform="translate(0.917084 0.5)"/>
</clipPath>
<clipPath id="clip1_0_195">
<rect width="201.38" height="69.5937" fill="white" transform="translate(74.8924 63.9531)"/>
</clipPath>
</defs>
</svg>
