<svg width="340" height="197" viewBox="0 0 340 197" fill="none" xmlns="http://www.w3.org/2000/svg">
<g style="mix-blend-mode:luminosity" clip-path="url(#clip0_0_207)">
<rect x="0.582794" y="0.5" width="349.333" height="196.5" rx="34.9333" fill="#F5F5F5"/>
<g clip-path="url(#clip1_0_207)">
<path d="M230.858 128.717C247.252 128.717 260.592 115.214 260.592 98.6198C260.592 82.0156 247.252 68.5226 230.858 68.5226C214.459 68.5226 201.123 82.0156 201.123 98.6198C201.123 115.214 214.459 128.717 230.858 128.717ZM230.858 87.8877C236.7 87.8877 241.458 92.7019 241.458 98.6166C241.458 104.531 236.697 109.339 230.854 109.339C225.008 109.339 220.257 104.531 220.257 98.6133C220.257 92.6921 225.012 87.8811 230.854 87.8811L230.858 87.8877ZM118.673 128.717C135.068 128.717 148.408 115.214 148.408 98.6198C148.408 82.0156 135.068 68.5226 118.673 68.5226C102.281 68.5226 88.9382 82.0156 88.9382 98.6198C88.9382 115.214 102.281 128.717 118.673 128.717ZM118.673 87.8877C124.519 87.8877 129.274 92.7019 129.274 98.6166C129.274 104.531 124.519 109.339 118.673 109.339C112.83 109.339 108.079 104.531 108.079 98.6133C108.079 92.6921 112.834 87.8811 118.673 87.8811V87.8877ZM174.749 87.2097L165.62 68.9156H144.246L164.21 108.936V127.777H185.291V108.936L205.256 68.9156H183.871L174.752 87.2097H174.749Z" fill="#EE2E24"/>
</g>
</g>
<defs>
<clipPath id="clip0_0_207">
<rect width="349.333" height="196.5" fill="white" transform="translate(0.582764 0.5)"/>
</clipPath>
<clipPath id="clip1_0_207">
<rect width="172.612" height="65.4999" fill="white" transform="translate(88.9382 66)"/>
</clipPath>
</defs>
</svg>
