<svg width="33" height="33" viewBox="0 0 33 33" fill="none" xmlns="http://www.w3.org/2000/svg">
<path opacity="0.1" fill-rule="evenodd" clip-rule="evenodd" d="M0.0043335 16.1537C0.0043335 7.28914 7.19045 0.103027 16.055 0.103027C24.9195 0.103027 32.1056 7.28914 32.1056 16.1537C32.1056 25.0182 24.9195 32.2043 16.055 32.2043C7.19045 32.2043 0.0043335 25.0182 0.0043335 16.1537Z" fill="#2F3337"/>
<path fill-rule="evenodd" clip-rule="evenodd" d="M15.5747 13.1492L15.6084 13.7046L15.047 13.6366C13.0037 13.3759 11.2186 12.4918 9.70293 11.007L8.96194 10.2702L8.77108 10.8143C8.3669 12.0271 8.62513 13.3079 9.46716 14.1693C9.91624 14.6453 9.8152 14.7133 9.04053 14.43C8.77108 14.3393 8.53531 14.2713 8.51286 14.3053C8.43427 14.3846 8.70372 15.4161 8.91703 15.8241C9.20894 16.3908 9.80397 16.9462 10.4551 17.2749L11.0053 17.5356L10.3541 17.5469C9.72538 17.5469 9.70293 17.5583 9.77029 17.7963C9.99483 18.533 10.8818 19.3151 11.8698 19.6552L12.5658 19.8932L11.9596 20.2559C11.0614 20.7773 10.0061 21.072 8.95071 21.0946C8.44549 21.106 8.03009 21.1513 8.03009 21.1853C8.03009 21.2987 9.3998 21.9334 10.1969 22.1827C12.5883 22.9195 15.4287 22.6021 17.5619 21.344C19.0775 20.4486 20.5932 18.6691 21.3005 16.9462C21.6822 16.0281 22.064 14.3506 22.064 13.5459C22.064 13.0245 22.0976 12.9565 22.7264 12.3331C23.0968 11.9704 23.4449 11.5737 23.5123 11.4603C23.6245 11.245 23.6133 11.245 23.0407 11.4377C22.0864 11.7777 21.9517 11.7324 22.4232 11.2223C22.7713 10.8596 23.1867 10.2022 23.1867 10.0095C23.1867 9.97553 23.0183 10.0322 22.8274 10.1342C22.6253 10.2476 22.1762 10.4176 21.8394 10.5196L21.2332 10.7123L20.683 10.3382C20.3799 10.1342 19.9533 9.90752 19.7287 9.83951C19.1561 9.68083 18.2804 9.7035 17.764 9.88485C16.3606 10.3949 15.4737 11.7097 15.5747 13.1492Z" fill="#2F3337"/>
</svg>
