<svg width="351" height="197" viewBox="0 0 351 197" fill="none" xmlns="http://www.w3.org/2000/svg">
<g style="mix-blend-mode:luminosity" opacity="0.7" clip-path="url(#clip0_0_202)">
<rect x="0.748905" y="0.5" width="349.333" height="196.5" rx="34.9333" fill="#F5F5F5"/>
<g clip-path="url(#clip1_0_202)">
<path d="M139.876 90.478V93.726H139.976C141.154 91.987 143.11 89.939 147.444 89.939C150.816 89.939 153.402 91.6421 154.511 94.2146H154.611C155.558 92.914 156.643 91.9295 157.86 91.2325C159.299 90.4061 160.901 89.9318 162.918 89.9318C167.483 89.9318 171.524 92.8781 171.524 100.308V114.4H164.565V101.293C164.565 97.5273 163.195 95.35 160.346 95.35C158.26 95.35 156.743 96.6578 156.166 98.2675C155.966 98.8208 155.874 99.5753 155.874 100.208V114.407H148.914V100.761C148.914 97.5633 147.598 95.3428 144.788 95.3428C142.54 95.3428 141.131 96.9956 140.554 98.4112C140.307 99.0148 140.23 99.7118 140.23 100.366V114.4H133.263V90.478H139.876ZM207.445 90.478V94.9907H207.638C208.916 91.5415 211.949 89.939 214.612 89.939C215.282 89.939 215.652 89.9893 216.191 90.0899V96.356C215.552 96.2698 214.959 96.1836 214.127 96.1836C211.11 96.1836 209.008 97.822 208.477 100.387C208.361 100.919 208.323 101.494 208.323 102.155V114.407H201.179V90.478H207.445ZM225.89 82.5519V90.0828H231.926V96.1764H225.89V105.166C225.89 108.076 226.683 109.485 229.039 109.485C230.148 109.485 230.964 109.355 231.672 109.19L231.764 114.242C230.817 114.572 228.8 114.932 226.753 114.932C224.343 114.932 222.334 114.148 221.11 112.934C219.709 111.547 219.062 109.276 219.062 106.043V82.5519H225.89ZM128.413 114.4H121.485V82.5519H128.413V114.4ZM109.937 105.856C109.937 106.294 109.899 106.754 109.768 107.149C109.229 108.809 107.389 110.21 105.095 110.21C103.178 110.21 101.654 109.197 101.654 107.049C101.654 103.765 105.534 102.852 109.945 102.874V105.856H109.937ZM116.858 100.129C116.858 94.7033 114.379 89.939 105.996 89.939C101.692 89.939 98.2742 91.0672 96.4112 92.0732L97.7738 96.4279C99.4751 95.4219 102.193 94.5955 104.764 94.5955C109.021 94.5883 109.714 96.8447 109.714 98.289V98.634C100.437 98.6196 94.579 101.616 94.579 107.724C94.579 111.454 97.5582 114.946 102.747 114.946C105.942 114.946 108.605 113.76 110.207 111.856H110.361C110.361 111.856 111.423 115.988 117.258 114.407C116.95 112.682 116.85 110.85 116.85 108.644V100.129H116.858ZM59.7745 82.5519C60.4905 85.9221 62.5228 95.7093 62.5228 95.7093C63.3774 99.7334 64.1626 103.952 64.7554 107.286H64.8631C65.4405 103.743 66.3489 100.387 67.3189 96.2339L70.7447 82.5519H78.3276L81.5302 96.586C82.3693 100.488 83.0391 103.499 83.5702 107.128H83.6703C84.2477 103.463 85.0021 100.33 85.8259 96.3201L88.9052 82.5519H96.1802L87.1654 114.4C81.4224 115.571 79.2207 113.415 78.4354 109.995C77.6502 106.567 76.1105 100.05 76.1105 100.05C75.3176 96.4782 74.7017 93.9631 74.2706 90.2983H74.1628C73.5469 93.9272 72.9003 96.471 71.9457 100.042L68.1658 114.407C62.2996 115.499 60.2672 113.882 59.1432 109.492C58.1732 105.734 52.1223 82.5591 52.1223 82.5591H59.7745V82.5519ZM189.631 105.856C189.631 106.294 189.593 106.754 189.462 107.149C188.923 108.809 187.083 110.21 184.789 110.21C182.872 110.21 181.348 109.197 181.348 107.049C181.348 103.765 185.228 102.852 189.639 102.874V105.856H189.631ZM196.552 100.129C196.552 94.7033 194.073 89.939 185.689 89.939C181.386 89.939 177.968 91.0672 176.105 92.0732L177.468 96.4279C179.169 95.4219 181.886 94.5955 184.458 94.5955C188.707 94.5883 189.408 96.8447 189.408 98.289V98.634C180.139 98.6196 174.28 101.616 174.28 107.724C174.28 111.454 177.267 114.946 182.448 114.946C185.636 114.946 188.307 113.76 189.9 111.856H190.062C190.062 111.856 191.125 115.988 196.96 114.407C196.652 112.682 196.552 110.85 196.552 108.644V100.129Z" fill="#041E42"/>
<path d="M260.017 103.433C260.7 104.596 260.654 105.894 259.925 106.487L247.325 115.124C246.013 115.867 244.048 114.966 242.936 113.083C241.815 111.192 242.015 109.083 243.327 108.341L257.278 101.993C258.153 101.662 259.334 102.27 260.017 103.433ZM276.6 103.433C277.291 102.27 278.465 101.67 279.34 101.985L293.298 108.333C294.61 109.076 294.802 111.184 293.689 113.075C292.569 114.959 290.597 115.852 289.292 115.116L276.692 106.48C275.971 105.894 275.917 104.589 276.6 103.433ZM268.305 108.115C269.678 108.115 270.807 108.806 270.96 109.714L272.318 124.706C272.318 126.192 270.546 127.407 268.313 127.407C266.087 127.407 264.307 126.192 264.307 124.706L265.657 109.714C265.811 108.806 266.939 108.115 268.305 108.115ZM276.692 91.0223L289.292 82.3782C290.597 81.6353 292.569 82.5282 293.689 84.4191C294.802 86.31 294.61 88.4186 293.298 89.1614L279.34 95.517C278.465 95.8321 277.283 95.2318 276.6 94.0688C275.917 92.9057 275.971 91.6076 276.692 91.0223ZM257.278 95.517L243.327 89.1614C242.023 88.4186 241.823 86.31 242.936 84.4191C244.048 82.5282 246.021 81.6353 247.325 82.3782L259.925 91.0223C260.654 91.6001 260.7 92.9057 260.017 94.0688C259.334 95.2318 258.153 95.8321 257.278 95.517ZM265.657 87.7883L264.307 72.7961C264.307 71.3104 266.08 70.0948 268.313 70.0948C270.546 70.0948 272.318 71.3104 272.318 72.7961L270.96 87.7883C270.807 88.6887 269.678 89.3865 268.305 89.3865C266.939 89.3865 265.811 88.6887 265.657 87.7883ZM297.096 115.064V114.689H297.442C297.557 114.689 297.634 114.764 297.634 114.876C297.634 114.981 297.557 115.064 297.442 115.064H297.096ZM296.813 115.747C296.813 115.784 296.843 115.822 296.889 115.822H297.035C297.073 115.822 297.112 115.784 297.112 115.747V115.319H297.35L297.542 115.769C297.557 115.799 297.58 115.822 297.611 115.822H297.787C297.841 115.822 297.879 115.769 297.856 115.717C297.787 115.582 297.718 115.439 297.649 115.296C297.764 115.259 297.941 115.146 297.941 114.876C297.941 114.591 297.703 114.426 297.465 114.426H296.889C296.851 114.426 296.813 114.464 296.813 114.501V115.747ZM296.191 115.124C296.191 114.516 296.697 114.021 297.319 114.021C297.941 114.021 298.447 114.509 298.447 115.124C298.447 115.732 297.948 116.227 297.319 116.227C296.69 116.227 296.191 115.732 296.191 115.124ZM295.922 115.124C295.922 115.874 296.544 116.489 297.319 116.489C298.086 116.489 298.716 115.874 298.716 115.124C298.716 114.373 298.086 113.758 297.319 113.758C296.544 113.758 295.922 114.373 295.922 115.124Z" fill="#FFC124"/>
</g>
</g>
<defs>
<clipPath id="clip0_0_202">
<rect width="349.333" height="196.5" fill="white" transform="translate(0.749939 0.5)"/>
</clipPath>
<clipPath id="clip1_0_202">
<rect width="246.588" height="57.3124" fill="white" transform="translate(52.1217 70.0948)"/>
</clipPath>
</defs>
</svg>
