<svg width="33" height="33" viewBox="0 0 33 33" fill="none" xmlns="http://www.w3.org/2000/svg">
<path opacity="0.1" fill-rule="evenodd" clip-rule="evenodd" d="M0.50647 16.1537C0.50647 7.28914 7.69259 0.103027 16.5571 0.103027C25.4216 0.103027 32.6078 7.28914 32.6078 16.1537C32.6078 25.0182 25.4216 32.2043 16.5571 32.2043C7.69259 32.2043 0.50647 25.0182 0.50647 16.1537Z" fill="#2F3337"/>
<path fill-rule="evenodd" clip-rule="evenodd" d="M23.245 10.6359C23.9817 10.8381 24.5619 11.4337 24.7588 12.1901C25.1165 13.561 25.1165 16.4213 25.1165 16.4213C25.1165 16.4213 25.1165 19.2815 24.7588 20.6525C24.5619 21.4089 23.9817 22.0045 23.245 22.2068C21.91 22.574 16.5562 22.574 16.5562 22.574C16.5562 22.574 11.2024 22.574 9.86726 22.2068C9.13058 22.0045 8.55042 21.4089 8.35354 20.6525C7.99585 19.2815 7.99585 16.4213 7.99585 16.4213C7.99585 16.4213 7.99585 13.561 8.35354 12.1901C8.55042 11.4337 9.13058 10.8381 9.86726 10.6359C11.2024 10.2686 16.5562 10.2686 16.5562 10.2686C16.5562 10.2686 21.91 10.2686 23.245 10.6359ZM14.9511 14.0136V19.3639L19.2313 16.6889L14.9511 14.0136Z" fill="#2F3337"/>
</svg>
